HIERARCHY
ROOT Hips
{
 OFFSET 0.000000 0.000000 0.000000
 CHANNELS 6 Xposition Yposition Zposition Yrotation Xrotation Zrotation
 JOINT Chest
 {
  OFFSET 0.000000 14.632000 -0.008700
  CHANNELS 3 Yrotation Xrotation Zrotation
  JOINT Chest2
  {
   OFFSET 0.000000 8.637700 0.017800
   CHANNELS 3 Yrotation Xrotation Zrotation
   JOINT Chest3
   {
    OFFSET 0.000000 8.599900 0.000000
    CHANNELS 3 Yrotation Xrotation Zrotation
    JOINT Chest4
    {
     OFFSET 0.000000 8.591100 0.000000
     CHANNELS 3 Yrotation Xrotation Zrotation
     JOINT Neck
     {
      OFFSET 0.000000 13.139200 0.000000
      CHANNELS 3 Yrotation Xrotation Zrotation
      JOINT Head
      {
       OFFSET 0.000000 8.045900 0.037600
       CHANNELS 3 Yrotation Xrotation Zrotation
       End Site
       {
        OFFSET 0.000000 15.258900 0.019900
       }
      }
     }
     JOINT RightCollar
     {
      OFFSET -2.790300 8.725300 0.000000
      CHANNELS 3 Yrotation Xrotation Zrotation
      JOINT RightShoulder
      {
       OFFSET -13.162000 0.000000 0.000000
       CHANNELS 3 Yrotation Xrotation Zrotation
       JOINT RightElbow
       {
        OFFSET 0.000000 -23.347200 0.000000
        CHANNELS 3 Yrotation Xrotation Zrotation
        JOINT RightWrist
        {
         OFFSET 0.000000 -19.377400 0.019700
         CHANNELS 3 Yrotation Xrotation Zrotation
         End Site
         {
          OFFSET 0.000000 -14.645200 0.000000
         }
        }
       }
      }
     }
     JOINT LeftCollar
     {
      OFFSET 2.790300 8.725300 0.000000
      CHANNELS 3 Yrotation Xrotation Zrotation
      JOINT LeftShoulder
      {
       OFFSET 13.162000 0.000000 0.000000
       CHANNELS 3 Yrotation Xrotation Zrotation
       JOINT LeftElbow
       {
        OFFSET 0.000000 -23.347200 0.000000
        CHANNELS 3 Yrotation Xrotation Zrotation
        JOINT LeftWrist
        {
         OFFSET 0.000000 -19.377400 0.019700
         CHANNELS 3 Yrotation Xrotation Zrotation
         End Site
         {
          OFFSET 0.000000 -14.645200 0.000000
         }
        }
       }
      }
     }
    }
   }
  }
 }
 JOINT RightHip
 {
  OFFSET -11.965000 0.043200 0.004400
  CHANNELS 3 Yrotation Xrotation Zrotation
  JOINT RightKnee
  {
   OFFSET 0.000000 -37.808000 -0.003100
   CHANNELS 3 Yrotation Xrotation Zrotation
   JOINT RightAnkle
   {
    OFFSET 0.000000 -38.963200 0.011000
    CHANNELS 3 Yrotation Xrotation Zrotation
    JOINT RightToe
    {
     OFFSET 0.000000 -8.453600 14.155200
     CHANNELS 3 Yrotation Xrotation Zrotation
     End Site
     {
      OFFSET 0.000000 -1.360900 5.784800
     }
    }
   }
  }
 }
 JOINT LeftHip
 {
  OFFSET 11.965000 0.043200 0.004400
  CHANNELS 3 Yrotation Xrotation Zrotation
  JOINT LeftKnee
  {
   OFFSET 0.000000 -37.808000 -0.003100
   CHANNELS 3 Yrotation Xrotation Zrotation
   JOINT LeftAnkle
   {
    OFFSET 0.000000 -38.963200 0.011000
    CHANNELS 3 Yrotation Xrotation Zrotation
    JOINT LeftToe
    {
     OFFSET 0.000000 -8.453600 14.155200
     CHANNELS 3 Yrotation Xrotation Zrotation
     End Site
     {
      OFFSET 0.000000 -1.360900 5.784800
     }
    }
   }
  }
 }
}
MOTION
Frames: 7
Frame Time: 0.008333
0.000000 85.009900 0.000000 0.000000 -5.767877 0.000000 0.000000 11.653817 0.000000 0.000000 -5.885947 0.000000 0.000000 -0.000000 0.000000 0.000000 -0.000000 0.000000 0.000000 12.528835 0.000000 0.000000 0.711642 0.000000 0.000000 -0.000000 0.000000 0.000000 0.000000 -90.000000 0.000000 -2.309062 0.000000 0.000000 2.309062 0.000000 0.000000 -0.000000 0.000000 0.000000 -0.000000 90.000000 0.000000 -2.309062 0.000000 0.000000 2.309062 0.000000 0.000000 8.520406 0.000000 0.000000 1.905762 0.000000 -0.000000 -4.658285 0.000000 0.000000 -0.000000 0.000000 0.000000 8.520406 0.000000 0.000000 1.905762 0.000000 -0.000000 -4.658285 0.000000 0.000000 -0.000000 0.000000
-85.342289 61.162111 2.950625 174.756843 -33.308062 -5.402563 4.679880 21.690223 4.097198 0.532094 3.036811 0.393894 0.852034 4.936423 0.654772 3.693354 18.376493 2.919828 -3.586831 14.466446 2.951518 -7.847192 -8.622997 6.895068 2.586849 -3.086261 0.046120 20.298205 -30.611689 -20.617206 71.336806 -83.339181 -46.776413 14.746374 -3.964565 -27.863696 -14.816826 -6.924502 -0.171690 -2.800533 -41.403530 28.895467 -126.209841 -78.126870 102.785425 -8.742830 -2.051359 5.636912 8.508812 -37.258794 -0.206576 -3.784074 69.118048 -0.320983 3.021396 4.884230 5.515224 -0.022338 0.045973 -0.015352 -11.488134 -44.833834 9.767614 32.137010 70.054960 33.109399 -8.816823 28.164552 -0.193844 1.008147 -22.286074 -6.297345
-85.343730 61.164525 2.944991 174.780862 -33.321032 -5.397016 4.694950 21.691306 4.097448 0.569171 3.021899 0.396314 0.882025 4.918939 0.652672 3.699423 18.370690 2.921753 -3.687044 14.557653 2.994524 -8.057974 -8.397567 7.007662 2.523117 -3.083329 0.074197 20.325692 -30.552292 -20.588168 68.094135 -83.123885 -43.522122 14.725022 -3.984470 -27.582068 -14.966784 -7.072858 -0.041589 -3.075205 -42.134435 29.140292 -122.081755 -78.763317 99.241953 -8.500032 -2.210331 5.513607 8.519071 -37.242828 -0.211309 -3.735178 69.130647 -0.301286 2.992229 4.872002 5.546794 -0.026367 0.042610 -0.018138 -11.477771 -44.820558 9.743992 32.214201 70.043881 33.129928 -8.730679 28.165619 -0.047243 0.944142 -22.286841 -6.342453
-85.347075 61.165140 2.941513 174.802278 -33.321249 -5.384599 4.709038 21.681186 4.092122 0.578208 3.014954 0.394934 0.900558 4.905819 0.652634 3.720777 18.355716 2.919787 -3.764765 14.615942 3.029483 -8.263723 -8.149607 7.111662 2.457991 -3.076746 0.096799 20.382601 -30.484922 -20.584827 64.907960 -82.905088 -40.298938 14.696288 -4.016343 -27.257926 -15.098980 -7.229343 0.094334 -3.387255 -42.839748 29.405184 -117.454288 -79.331218 95.191438 -8.253641 -2.350820 5.354182 8.536416 -37.242538 -0.242425 -3.758181 69.146133 -0.327616 3.000778 4.863118 5.560885 -0.032374 0.038516 -0.017913 -11.445368 -44.820491 9.715981 32.190986 70.042864 33.093082 -8.739988 28.156321 -0.033220 0.942350 -22.277594 -6.329480
-85.354171 61.164456 2.939041 174.818696 -33.313397 -5.357812 4.734552 21.656291 4.077257 0.540125 3.026951 0.391753 0.916029 4.896520 0.653432 3.754723 18.325686 2.918380 -3.842540 14.718548 3.055759 -8.439533 -7.952338 7.209558 2.403468 -3.069825 0.108632 20.404964 -30.434043 -20.573668 61.760564 -82.676485 -37.038142 14.662112 -4.049892 -26.884699 -15.209462 -7.387184 0.226310 -3.744971 -43.518915 29.704901 -112.312485 -79.826817 90.631921 -8.005598 -2.480125 5.189901 8.567018 -37.254455 -0.283370 -3.763516 69.168656 -0.349571 2.992162 4.850906 5.583548 -0.037605 0.036433 -0.016576 -11.385884 -44.832669 9.684261 32.083863 70.057318 32.989638 -8.823932 28.141995 -0.102888 0.997440 -22.264305 -6.277790
-85.356885 61.164723 2.936328 174.835867 -33.308570 -5.352298 4.768075 21.634531 4.091518 0.541130 3.021566 0.390712 0.889878 4.902947 0.649565 3.763696 18.293308 2.922905 -3.942590 14.862513 3.092397 -8.560852 -7.801322 7.273308 2.359890 -3.059440 0.108948 20.489377 -30.331414 -20.609908 58.782657 -82.457437 -33.975600 14.628794 -4.078896 -26.460397 -15.302500 -7.542137 0.348476 -4.138992 -44.172865 30.047435 -106.650064 -80.232522 85.559155 -7.757591 -2.613899 5.049430 8.579650 -37.261500 -0.282570 -3.826931 69.179452 -0.437761 2.988737 4.846296 5.611734 -0.034955 0.032588 -0.015416 -11.378503 -44.839265 9.671145 32.081405 70.057835 32.976179 -8.827413 28.143522 -0.092796 1.007170 -22.264112 -6.277015
-85.353695 61.166417 2.933122 174.846383 -33.309727 -5.370475 4.785159 21.617564 4.118083 0.553243 2.997301 0.401011 0.880458 4.912457 0.640052 3.747096 18.275797 2.934180 -4.021678 14.976381 3.119574 -8.675787 -7.620262 7.321563 2.331025 -3.045964 0.098252 20.568784 -30.220012 -20.661151 55.918575 -82.235119 -30.988552 14.603351 -4.097915 -25.990653 -15.378363 -7.696251 0.461977 -4.554978 -44.802943 30.426260 -100.531708 -80.523666 80.033890 -7.515823 -2.755268 4.942411 8.565817 -37.258307 -0.245896 -3.856355 69.173983 -0.486749 2.983056 4.849306 5.629864 -0.034812 0.029370 -0.017072 -11.391725 -44.835443 9.696598 32.099353 70.057020 32.973156 -8.789868 28.155783 -0.036477 0.973068 -22.276264 -6.289700
